<?xml version="1.0" encoding="UTF-8"?>
<svg version="1.1" xmlns="http://www.w3.org/2000/svg" width="55" height="63">
<path d="M0 0 C18.15 0 36.3 0 55 0 C55 20.79 55 41.58 55 63 C36.85 63 18.7 63 0 63 C0 42.21 0 21.42 0 0 Z " fill="#FDFDFD" transform="translate(0,0)"/>
<path d="M0 0 C4.72924803 3.51511396 9.62553351 8.51681264 10.88671875 14.40234375 C11.67308878 22.77572838 10.40906863 29.41789433 5.26171875 36.15234375 C0.49173745 41.28653545 -5.22399345 43.57130624 -12.17578125 43.90234375 C-18.98301862 43.5751742 -23.84251047 41.08977552 -28.42578125 36.08984375 C-33.68950883 29.30580248 -35.17464467 22.8566524 -34.11328125 14.40234375 C-32.25316218 7.69889577 -27.68312327 3.32951752 -22.11328125 -0.59765625 C-15.17485994 -4.06686691 -6.72603189 -3.83370175 0 0 Z " fill="#4A4847" transform="translate(41.11328125,13.59765625)"/>
<path d="M0 0 C1.13598633 0.00483398 1.13598633 0.00483398 2.29492188 0.00976562 C3.47344727 0.02233398 3.47344727 0.02233398 4.67578125 0.03515625 C5.47306641 0.03966797 6.27035156 0.04417969 7.09179688 0.04882812 C9.05732382 0.06059775 11.0228121 0.07853277 12.98828125 0.09765625 C12.98828125 2.73765625 12.98828125 5.37765625 12.98828125 8.09765625 C7.04828125 8.42765625 1.10828125 8.75765625 -5.01171875 9.09765625 C-6.39296893 11.86015661 -6.20251181 14.04496724 -6.01171875 17.09765625 C-2.9907866 20.1185884 0.55200197 19.56442459 4.61328125 19.72265625 C5.41507813 19.76132812 6.216875 19.8 7.04296875 19.83984375 C9.02435681 19.93419556 11.0062877 20.0170184 12.98828125 20.09765625 C12.98828125 22.40765625 12.98828125 24.71765625 12.98828125 27.09765625 C9.92482981 27.20588417 6.86522115 27.28507104 3.80078125 27.34765625 C2.93646484 27.38117187 2.07214844 27.4146875 1.18164062 27.44921875 C-3.05858493 27.51420305 -5.36325421 27.49960399 -9.04296875 25.21875 C-12.98973878 20.96657514 -13.40015986 16.86312391 -13.26953125 11.24609375 C-12.75356555 6.94637961 -10.26709584 3.81047049 -7.01171875 1.09765625 C-4.30455633 0.19526878 -2.77395107 -0.02085677 0 0 Z " fill="#E57922" transform="translate(28.01171875,19.90234375)"/>
</svg>
